<?xml version="1.0" encoding="UTF-8" standalone="no"?>
<!DOCTYPE svg PUBLIC "-//W3C//DTD SVG 1.1//EN" "http://www.w3.org/Graphics/SVG/1.1/DTD/svg11.dtd">
<svg width="100%" height="100%" viewBox="0 0 1200 300" version="1.1" xmlns="http://www.w3.org/2000/svg" xmlns:xlink="http://www.w3.org/1999/xlink" xml:space="preserve" xmlns:serif="http://www.serif.com/" style="fill-rule:evenodd;clip-rule:evenodd;stroke-linejoin:round;stroke-miterlimit:2;">
    <g transform="matrix(3.74692,0,0,3.74692,-142.191,-4.28146)">
        <path d="M294.794,58.586C293.528,58.586 292.544,58.178 291.844,57.361C291.144,56.544 290.794,55.503 290.794,54.236C290.794,53.169 291.019,51.978 291.469,50.661C291.919,49.344 292.544,48.028 293.344,46.711C294.144,45.394 295.053,44.186 296.069,43.086C297.086,41.986 298.178,41.094 299.344,40.411C300.511,39.728 301.694,39.386 302.894,39.386C303.528,39.386 304.011,39.486 304.344,39.686C304.678,39.886 304.911,40.136 305.044,40.436C305.111,40.403 305.169,40.386 305.219,40.386L305.394,40.386C306.028,40.386 306.469,40.636 306.719,41.136C306.969,41.636 307.094,42.036 307.094,42.336C307.094,42.736 306.928,43.261 306.594,43.911C306.261,44.561 305.936,45.286 305.619,46.086C305.303,46.886 305.144,47.736 305.144,48.636C305.144,49.569 305.378,50.261 305.844,50.711C306.311,51.161 307.061,51.386 308.094,51.386C308.761,51.386 309.469,51.061 310.219,50.411C310.969,49.761 311.711,48.928 312.444,47.911C313.178,46.894 313.836,45.786 314.419,44.586C315.003,43.386 315.444,42.236 315.744,41.136C315.411,40.803 315.244,40.403 315.244,39.936C315.244,39.269 315.378,38.678 315.644,38.161C315.911,37.644 316.219,37.244 316.569,36.961C316.919,36.678 317.178,36.536 317.344,36.536C317.711,36.536 317.919,36.694 317.969,37.011C318.019,37.328 318.044,37.569 318.044,37.736C318.044,37.903 317.953,38.228 317.769,38.711C317.586,39.194 317.494,39.486 317.494,39.586C317.494,40.053 317.753,40.478 318.269,40.861C318.786,41.244 319.378,41.678 320.044,42.161C320.711,42.644 321.303,43.228 321.819,43.911C322.336,44.594 322.594,45.469 322.594,46.536C322.594,47.536 322.386,48.553 321.969,49.586C321.553,50.619 321.136,51.603 320.719,52.536C320.303,53.469 320.094,54.286 320.094,54.986C320.094,55.586 320.244,55.986 320.544,56.186C320.844,56.386 321.194,56.486 321.594,56.486C322.394,56.486 323.219,56.236 324.069,55.736C324.919,55.236 325.744,54.603 326.544,53.836C327.344,53.069 328.061,52.261 328.694,51.411C329.328,50.561 329.794,49.769 330.094,49.036L330.744,49.536C330.111,50.936 329.244,52.311 328.144,53.661C327.044,55.011 325.819,56.119 324.469,56.986C323.119,57.853 321.728,58.286 320.294,58.286C319.161,58.286 318.269,57.986 317.619,57.386C316.969,56.786 316.644,56.003 316.644,55.036C316.644,54.036 316.878,52.986 317.344,51.886C317.811,50.786 318.269,49.694 318.719,48.611C319.169,47.528 319.394,46.553 319.394,45.686C319.394,44.619 319.086,43.828 318.469,43.311C317.853,42.794 317.228,42.319 316.594,41.886C316.228,43.019 315.736,44.211 315.119,45.461C314.503,46.711 313.811,47.878 313.044,48.961C312.278,50.044 311.453,50.919 310.569,51.586C309.686,52.253 308.761,52.586 307.794,52.586C306.861,52.586 306.019,52.394 305.269,52.011C304.519,51.628 303.944,51.053 303.544,50.286C302.511,52.719 301.236,54.711 299.719,56.261C298.203,57.811 296.561,58.586 294.794,58.586ZM295.894,56.436C296.661,56.436 297.478,56.094 298.344,55.411C299.211,54.728 300.061,53.803 300.894,52.636C301.728,51.469 302.444,50.169 303.044,48.736C302.844,47.936 302.744,46.986 302.744,45.886C302.744,45.119 302.786,44.453 302.869,43.886C302.953,43.319 303.069,42.819 303.219,42.386C303.369,41.953 303.528,41.603 303.694,41.336C302.561,41.336 301.503,41.644 300.519,42.261C299.536,42.878 298.644,43.678 297.844,44.661C297.044,45.644 296.361,46.703 295.794,47.836C295.228,48.969 294.786,50.069 294.469,51.136C294.153,52.203 293.994,53.119 293.994,53.886C293.994,54.653 294.161,55.269 294.494,55.736C294.828,56.203 295.294,56.436 295.894,56.436Z"/>
        <text x="46.144px" y="56.986px" style="font-family:'DancingScript-Regular', 'Dancing Script';font-size:50px;">L<tspan x="73.694px " y="56.986px ">i</tspan>ssenne Gom<tspan x="329.044px " y="56.986px ">a</tspan></text>
    </g>
</svg>
