<?xml version="1.0" encoding="UTF-8" standalone="no"?>
<!DOCTYPE svg PUBLIC "-//W3C//DTD SVG 1.1//EN" "http://www.w3.org/Graphics/SVG/1.1/DTD/svg11.dtd">
<svg width="100%" height="100%" viewBox="0 0 1200 300" version="1.1" xmlns="http://www.w3.org/2000/svg" xmlns:xlink="http://www.w3.org/1999/xlink" xml:space="preserve" xmlns:serif="http://www.serif.com/" style="fill-rule:evenodd;clip-rule:evenodd;stroke-linejoin:round;stroke-miterlimit:2;">
    <g transform="matrix(3.74692,0,0,3.74692,-142.191,-4.28146)">
        <path d="M294.794,58.586C293.528,58.586 292.544,58.178 291.844,57.361C291.144,56.544 290.794,55.503 290.794,54.236C290.794,53.169 291.019,51.978 291.469,50.661C291.919,49.344 292.544,48.028 293.344,46.711C294.144,45.394 295.053,44.186 296.069,43.086C297.086,41.986 298.178,41.094 299.344,40.411C300.511,39.728 301.694,39.386 302.894,39.386C303.528,39.386 304.011,39.486 304.344,39.686C304.678,39.886 304.911,40.136 305.044,40.436C305.111,40.403 305.169,40.386 305.219,40.386L305.394,40.386C306.028,40.386 306.469,40.636 306.719,41.136C306.969,41.636 307.094,42.036 307.094,42.336C307.094,42.736 306.928,43.261 306.594,43.911C306.261,44.561 305.936,45.286 305.619,46.086C305.303,46.886 305.144,47.736 305.144,48.636C305.144,49.569 305.378,50.261 305.844,50.711C306.311,51.161 307.061,51.386 308.094,51.386C308.761,51.386 309.469,51.061 310.219,50.411C310.969,49.761 311.711,48.928 312.444,47.911C313.178,46.894 313.836,45.786 314.419,44.586C315.003,43.386 315.444,42.236 315.744,41.136C315.411,40.803 315.244,40.403 315.244,39.936C315.244,39.269 315.378,38.678 315.644,38.161C315.911,37.644 316.219,37.244 316.569,36.961C316.919,36.678 317.178,36.536 317.344,36.536C317.711,36.536 317.919,36.694 317.969,37.011C318.019,37.328 318.044,37.569 318.044,37.736C318.044,37.903 317.953,38.228 317.769,38.711C317.586,39.194 317.494,39.486 317.494,39.586C317.494,40.053 317.753,40.478 318.269,40.861C318.786,41.244 319.378,41.678 320.044,42.161C320.711,42.644 321.303,43.228 321.819,43.911C322.336,44.594 322.594,45.469 322.594,46.536C322.594,47.536 322.386,48.553 321.969,49.586C321.553,50.619 321.136,51.603 320.719,52.536C320.303,53.469 320.094,54.286 320.094,54.986C320.094,55.586 320.244,55.986 320.544,56.186C320.844,56.386 321.194,56.486 321.594,56.486C322.394,56.486 323.219,56.236 324.069,55.736C324.919,55.236 325.744,54.603 326.544,53.836C327.344,53.069 328.061,52.261 328.694,51.411C329.328,50.561 329.794,49.769 330.094,49.036L330.744,49.536C330.111,50.936 329.244,52.311 328.144,53.661C327.044,55.011 325.819,56.119 324.469,56.986C323.119,57.853 321.728,58.286 320.294,58.286C319.161,58.286 318.269,57.986 317.619,57.386C316.969,56.786 316.644,56.003 316.644,55.036C316.644,54.036 316.878,52.986 317.344,51.886C317.811,50.786 318.269,49.694 318.719,48.611C319.169,47.528 319.394,46.553 319.394,45.686C319.394,44.619 319.086,43.828 318.469,43.311C317.853,42.794 317.228,42.319 316.594,41.886C316.228,43.019 315.736,44.211 315.119,45.461C314.503,46.711 313.811,47.878 313.044,48.961C312.278,50.044 311.453,50.919 310.569,51.586C309.686,52.253 308.761,52.586 307.794,52.586C306.861,52.586 306.019,52.394 305.269,52.011C304.519,51.628 303.944,51.053 303.544,50.286C302.511,52.719 301.236,54.711 299.719,56.261C298.203,57.811 296.561,58.586 294.794,58.586ZM295.894,56.436C296.661,56.436 297.478,56.094 298.344,55.411C299.211,54.728 300.061,53.803 300.894,52.636C301.728,51.469 302.444,50.169 303.044,48.736C302.844,47.936 302.744,46.986 302.744,45.886C302.744,45.119 302.786,44.453 302.869,43.886C302.953,43.319 303.069,42.819 303.219,42.386C303.369,41.953 303.528,41.603 303.694,41.336C302.561,41.336 301.503,41.644 300.519,42.261C299.536,42.878 298.644,43.678 297.844,44.661C297.044,45.644 296.361,46.703 295.794,47.836C295.228,48.969 294.786,50.069 294.469,51.136C294.153,52.203 293.994,53.119 293.994,53.886C293.994,54.653 294.161,55.269 294.494,55.736C294.828,56.203 295.294,56.436 295.894,56.436Z" style="fill:white;"/>
        <g>
            <g transform="matrix(1,0,0,1,46.144,56.986)">
                <g transform="matrix(50,0,0,50,0,0)">
                    <path d="M0.397,0.087C0.373,0.087 0.346,0.082 0.318,0.072C0.289,0.062 0.259,0.05 0.228,0.035C0.197,0.021 0.167,0.007 0.137,-0.006C0.12,0.013 0.103,0.027 0.085,0.037C0.067,0.048 0.047,0.053 0.026,0.053C0.005,0.053 -0.013,0.048 -0.028,0.038C-0.043,0.028 -0.055,0.016 -0.062,0.002C-0.07,-0.011 -0.074,-0.023 -0.074,-0.034C-0.074,-0.046 -0.068,-0.056 -0.057,-0.065C-0.046,-0.074 -0.028,-0.078 -0.001,-0.078C0.016,-0.078 0.035,-0.076 0.057,-0.072C0.078,-0.068 0.099,-0.063 0.122,-0.057C0.138,-0.085 0.153,-0.118 0.167,-0.155C0.18,-0.192 0.194,-0.232 0.207,-0.274C0.22,-0.316 0.234,-0.358 0.247,-0.4C0.216,-0.41 0.192,-0.425 0.174,-0.444C0.157,-0.463 0.148,-0.484 0.148,-0.507C0.148,-0.519 0.151,-0.531 0.156,-0.543C0.161,-0.555 0.168,-0.565 0.177,-0.574C0.186,-0.582 0.197,-0.586 0.21,-0.586C0.205,-0.579 0.202,-0.57 0.2,-0.557C0.198,-0.544 0.197,-0.533 0.197,-0.524C0.197,-0.499 0.202,-0.477 0.213,-0.461C0.224,-0.444 0.237,-0.43 0.254,-0.421C0.267,-0.461 0.281,-0.499 0.296,-0.535C0.31,-0.57 0.326,-0.602 0.343,-0.63C0.36,-0.658 0.379,-0.68 0.4,-0.696C0.421,-0.712 0.444,-0.72 0.469,-0.72C0.482,-0.72 0.497,-0.717 0.511,-0.711C0.527,-0.705 0.539,-0.695 0.55,-0.68C0.561,-0.665 0.566,-0.645 0.566,-0.618C0.566,-0.595 0.561,-0.571 0.552,-0.545C0.543,-0.518 0.528,-0.493 0.509,-0.469C0.49,-0.446 0.465,-0.427 0.435,-0.411C0.405,-0.397 0.37,-0.389 0.329,-0.388L0.31,-0.388C0.297,-0.347 0.282,-0.306 0.268,-0.264C0.253,-0.222 0.237,-0.182 0.22,-0.145C0.203,-0.107 0.185,-0.073 0.166,-0.044C0.197,-0.035 0.228,-0.025 0.259,-0.016C0.29,-0.006 0.321,0.002 0.35,0.008C0.379,0.015 0.406,0.018 0.431,0.018C0.445,0.018 0.458,0.017 0.469,0.014C0.48,0.011 0.491,0.007 0.502,0.002C0.491,0.033 0.477,0.054 0.46,0.067C0.442,0.08 0.421,0.087 0.397,0.087ZM0.022,0.024C0.037,0.024 0.051,0.02 0.064,0.012C0.077,0.004 0.088,-0.007 0.099,-0.022C0.078,-0.031 0.058,-0.038 0.039,-0.043C0.019,-0.049 0.001,-0.052 -0.015,-0.052C-0.028,-0.052 -0.036,-0.05 -0.041,-0.047C-0.046,-0.044 -0.048,-0.039 -0.048,-0.033C-0.048,-0.022 -0.041,-0.009 -0.028,0.004C-0.015,0.017 0.001,0.024 0.022,0.024ZM0.316,-0.407C0.346,-0.407 0.373,-0.416 0.398,-0.433C0.422,-0.45 0.443,-0.471 0.46,-0.497C0.476,-0.522 0.49,-0.548 0.499,-0.575C0.507,-0.602 0.512,-0.625 0.512,-0.645C0.512,-0.664 0.508,-0.678 0.501,-0.685C0.494,-0.692 0.485,-0.695 0.476,-0.695C0.455,-0.695 0.436,-0.682 0.418,-0.655C0.4,-0.628 0.383,-0.593 0.367,-0.55C0.35,-0.506 0.333,-0.458 0.316,-0.407Z" style="fill:white;fill-rule:nonzero;"/>
                </g>
            </g>
            <g transform="matrix(1,0,0,1,73.694,56.986)">
                <g transform="matrix(50,0,0,50,0,0)">
                    <path d="M0.072,0.026C0.046,0.026 0.027,0.018 0.014,0.001C0.001,-0.015 -0.005,-0.035 -0.005,-0.058C-0.005,-0.073 -0.002,-0.093 0.004,-0.116C0.009,-0.139 0.017,-0.164 0.026,-0.19C0.035,-0.215 0.046,-0.239 0.059,-0.262C0.071,-0.285 0.084,-0.303 0.098,-0.318C0.112,-0.332 0.126,-0.339 0.139,-0.339C0.145,-0.339 0.15,-0.337 0.155,-0.334C0.159,-0.33 0.161,-0.324 0.161,-0.317C0.161,-0.309 0.156,-0.296 0.146,-0.278C0.135,-0.26 0.123,-0.239 0.109,-0.216C0.095,-0.193 0.083,-0.168 0.073,-0.142C0.062,-0.117 0.057,-0.092 0.057,-0.069C0.057,-0.045 0.061,-0.029 0.069,-0.021C0.077,-0.013 0.089,-0.009 0.106,-0.009C0.129,-0.009 0.153,-0.02 0.179,-0.043C0.204,-0.066 0.231,-0.105 0.26,-0.162L0.269,-0.152C0.25,-0.095 0.222,-0.051 0.186,-0.02C0.149,0.011 0.111,0.026 0.072,0.026ZM0.192,-0.432C0.181,-0.432 0.172,-0.435 0.164,-0.44C0.155,-0.445 0.151,-0.454 0.151,-0.465C0.151,-0.479 0.159,-0.491 0.175,-0.501C0.192,-0.512 0.208,-0.517 0.224,-0.517C0.234,-0.517 0.242,-0.515 0.248,-0.51C0.254,-0.505 0.257,-0.497 0.257,-0.486C0.257,-0.473 0.25,-0.461 0.236,-0.45C0.223,-0.438 0.208,-0.432 0.192,-0.432Z" style="fill:white;fill-rule:nonzero;"/>
                </g>
                <g transform="matrix(50,0,0,50,12.05,0)">
                    <path d="M0.105,0.051C0.074,0.051 0.049,0.044 0.031,0.03C0.012,0.017 -0.001,0 -0.008,-0.02C-0.016,-0.04 -0.02,-0.06 -0.02,-0.08C-0.02,-0.1 -0.017,-0.115 -0.012,-0.126C-0.007,-0.137 0,-0.145 0.008,-0.15C0.015,-0.155 0.023,-0.159 0.029,-0.162C0.037,-0.165 0.041,-0.167 0.044,-0.17C0.064,-0.192 0.082,-0.215 0.099,-0.239C0.116,-0.263 0.13,-0.288 0.143,-0.315L0.143,-0.327C0.143,-0.352 0.147,-0.369 0.156,-0.38C0.164,-0.39 0.173,-0.395 0.182,-0.395C0.187,-0.395 0.191,-0.394 0.194,-0.391C0.197,-0.388 0.198,-0.385 0.198,-0.382C0.198,-0.379 0.197,-0.373 0.195,-0.366C0.193,-0.359 0.192,-0.349 0.192,-0.338C0.192,-0.316 0.196,-0.292 0.205,-0.267C0.214,-0.241 0.222,-0.214 0.231,-0.186C0.24,-0.157 0.244,-0.128 0.244,-0.097C0.244,-0.088 0.244,-0.08 0.243,-0.071C0.242,-0.063 0.24,-0.055 0.238,-0.048C0.261,-0.052 0.283,-0.063 0.304,-0.08C0.325,-0.097 0.345,-0.124 0.364,-0.161L0.373,-0.151C0.36,-0.114 0.341,-0.086 0.316,-0.068C0.291,-0.049 0.263,-0.037 0.233,-0.032C0.222,-0.003 0.205,0.018 0.183,0.031C0.16,0.044 0.134,0.051 0.105,0.051ZM0.107,0.016C0.115,0.016 0.126,0.013 0.139,0.008C0.152,0.003 0.163,-0.011 0.17,-0.033C0.142,-0.038 0.117,-0.049 0.096,-0.066C0.074,-0.083 0.058,-0.099 0.047,-0.116C0.032,-0.115 0.025,-0.104 0.025,-0.081C0.025,-0.057 0.032,-0.035 0.047,-0.015C0.061,0.006 0.081,0.016 0.107,0.016ZM0.175,-0.049C0.176,-0.056 0.177,-0.063 0.178,-0.07C0.179,-0.077 0.179,-0.086 0.179,-0.096C0.179,-0.127 0.175,-0.159 0.168,-0.19C0.16,-0.221 0.153,-0.25 0.148,-0.277C0.133,-0.252 0.117,-0.228 0.1,-0.204C0.083,-0.182 0.066,-0.162 0.051,-0.147C0.061,-0.126 0.077,-0.106 0.098,-0.087C0.118,-0.068 0.144,-0.056 0.175,-0.049Z" style="fill:white;fill-rule:nonzero;"/>
                </g>
                <g transform="matrix(50,0,0,50,29.3,0)">
                    <path d="M0.105,0.051C0.074,0.051 0.049,0.044 0.031,0.03C0.012,0.017 -0.001,0 -0.008,-0.02C-0.016,-0.04 -0.02,-0.06 -0.02,-0.08C-0.02,-0.1 -0.017,-0.115 -0.012,-0.126C-0.007,-0.137 0,-0.145 0.008,-0.15C0.015,-0.155 0.023,-0.159 0.029,-0.162C0.037,-0.165 0.041,-0.167 0.044,-0.17C0.064,-0.192 0.082,-0.215 0.099,-0.239C0.116,-0.263 0.13,-0.288 0.143,-0.315L0.143,-0.327C0.143,-0.352 0.147,-0.369 0.156,-0.38C0.164,-0.39 0.173,-0.395 0.182,-0.395C0.187,-0.395 0.191,-0.394 0.194,-0.391C0.197,-0.388 0.198,-0.385 0.198,-0.382C0.198,-0.379 0.197,-0.373 0.195,-0.366C0.193,-0.359 0.192,-0.349 0.192,-0.338C0.192,-0.316 0.196,-0.292 0.205,-0.267C0.214,-0.241 0.222,-0.214 0.231,-0.186C0.24,-0.157 0.244,-0.128 0.244,-0.097C0.244,-0.088 0.244,-0.08 0.243,-0.071C0.242,-0.063 0.24,-0.055 0.238,-0.048C0.261,-0.052 0.283,-0.063 0.304,-0.08C0.325,-0.097 0.345,-0.124 0.364,-0.161L0.373,-0.151C0.36,-0.114 0.341,-0.086 0.316,-0.068C0.291,-0.049 0.263,-0.037 0.233,-0.032C0.222,-0.003 0.205,0.018 0.183,0.031C0.16,0.044 0.134,0.051 0.105,0.051ZM0.107,0.016C0.115,0.016 0.126,0.013 0.139,0.008C0.152,0.003 0.163,-0.011 0.17,-0.033C0.142,-0.038 0.117,-0.049 0.096,-0.066C0.074,-0.083 0.058,-0.099 0.047,-0.116C0.032,-0.115 0.025,-0.104 0.025,-0.081C0.025,-0.057 0.032,-0.035 0.047,-0.015C0.061,0.006 0.081,0.016 0.107,0.016ZM0.175,-0.049C0.176,-0.056 0.177,-0.063 0.178,-0.07C0.179,-0.077 0.179,-0.086 0.179,-0.096C0.179,-0.127 0.175,-0.159 0.168,-0.19C0.16,-0.221 0.153,-0.25 0.148,-0.277C0.133,-0.252 0.117,-0.228 0.1,-0.204C0.083,-0.182 0.066,-0.162 0.051,-0.147C0.061,-0.126 0.077,-0.106 0.098,-0.087C0.118,-0.068 0.144,-0.056 0.175,-0.049Z" style="fill:white;fill-rule:nonzero;"/>
                </g>
                <g transform="matrix(50,0,0,50,46.55,0)">
                    <path d="M0.108,0.044C0.067,0.044 0.037,0.033 0.017,0.01C-0.004,-0.012 -0.014,-0.039 -0.014,-0.072C-0.014,-0.102 -0.006,-0.134 0.009,-0.167C0.024,-0.2 0.043,-0.232 0.069,-0.261C0.094,-0.29 0.121,-0.314 0.151,-0.333C0.181,-0.351 0.211,-0.36 0.24,-0.36C0.255,-0.36 0.27,-0.356 0.282,-0.348C0.296,-0.34 0.302,-0.324 0.302,-0.299C0.302,-0.274 0.295,-0.25 0.28,-0.228C0.265,-0.205 0.245,-0.185 0.221,-0.168C0.196,-0.151 0.17,-0.137 0.141,-0.126C0.112,-0.115 0.083,-0.108 0.054,-0.105C0.053,-0.098 0.052,-0.092 0.051,-0.086C0.05,-0.08 0.05,-0.074 0.05,-0.069C0.05,-0.059 0.051,-0.049 0.054,-0.039C0.056,-0.029 0.06,-0.02 0.066,-0.012C0.072,-0.003 0.08,0.003 0.091,0.008C0.101,0.013 0.114,0.015 0.129,0.015C0.158,0.015 0.186,0.007 0.214,-0.01C0.242,-0.026 0.268,-0.047 0.292,-0.074C0.316,-0.101 0.336,-0.13 0.353,-0.162L0.365,-0.153C0.347,-0.113 0.324,-0.078 0.297,-0.049C0.269,-0.02 0.239,0.003 0.206,0.019C0.174,0.036 0.141,0.044 0.108,0.044ZM0.059,-0.124C0.077,-0.13 0.097,-0.139 0.12,-0.151C0.143,-0.162 0.165,-0.176 0.186,-0.192C0.206,-0.208 0.224,-0.226 0.237,-0.245C0.251,-0.264 0.258,-0.285 0.258,-0.306C0.258,-0.313 0.257,-0.319 0.254,-0.323C0.251,-0.327 0.246,-0.329 0.237,-0.329C0.221,-0.329 0.204,-0.323 0.186,-0.311C0.168,-0.298 0.151,-0.282 0.134,-0.262C0.117,-0.242 0.102,-0.22 0.089,-0.196C0.076,-0.172 0.066,-0.148 0.059,-0.124Z" style="fill:white;fill-rule:nonzero;"/>
                </g>
                <g transform="matrix(50,0,0,50,63.2,0)">
                    <path d="M0.323,0.02C0.3,0.02 0.282,0.014 0.271,0.002C0.259,-0.01 0.253,-0.025 0.253,-0.044C0.253,-0.058 0.256,-0.073 0.261,-0.088C0.266,-0.103 0.27,-0.119 0.275,-0.136C0.28,-0.152 0.282,-0.168 0.282,-0.183C0.282,-0.202 0.278,-0.215 0.271,-0.222C0.263,-0.229 0.253,-0.232 0.242,-0.232C0.221,-0.232 0.2,-0.224 0.179,-0.206C0.158,-0.19 0.137,-0.168 0.117,-0.141C0.097,-0.115 0.078,-0.088 0.061,-0.06C0.044,-0.032 0.028,-0.007 0.015,0.015C0.004,0.015 -0.006,0.013 -0.015,0.009C-0.025,0.006 -0.033,0 -0.038,-0.007C-0.038,-0.01 -0.034,-0.021 -0.027,-0.038C-0.02,-0.055 -0.012,-0.077 -0.003,-0.102C0.006,-0.127 0.015,-0.153 0.022,-0.18C0.029,-0.207 0.033,-0.231 0.033,-0.253C0.037,-0.258 0.043,-0.262 0.052,-0.267C0.061,-0.272 0.07,-0.274 0.079,-0.274C0.097,-0.274 0.106,-0.265 0.106,-0.248C0.106,-0.237 0.103,-0.22 0.097,-0.195C0.091,-0.17 0.083,-0.143 0.074,-0.116C0.092,-0.143 0.112,-0.171 0.135,-0.198C0.157,-0.225 0.181,-0.247 0.206,-0.265C0.231,-0.283 0.257,-0.292 0.282,-0.292C0.308,-0.292 0.327,-0.283 0.339,-0.264C0.35,-0.245 0.356,-0.225 0.356,-0.202C0.356,-0.181 0.353,-0.162 0.346,-0.145C0.339,-0.127 0.333,-0.11 0.326,-0.094C0.319,-0.077 0.315,-0.061 0.315,-0.044C0.315,-0.03 0.318,-0.02 0.324,-0.015C0.329,-0.009 0.336,-0.006 0.345,-0.006C0.362,-0.006 0.378,-0.014 0.395,-0.029C0.412,-0.045 0.428,-0.065 0.444,-0.089C0.459,-0.113 0.473,-0.137 0.485,-0.162L0.496,-0.149C0.482,-0.116 0.466,-0.087 0.449,-0.062C0.432,-0.037 0.413,-0.017 0.392,-0.002C0.371,0.013 0.348,0.02 0.323,0.02Z" style="fill:white;fill-rule:nonzero;"/>
                </g>
                <g transform="matrix(50,0,0,50,86.5,0)">
                    <path d="M0.323,0.02C0.3,0.02 0.282,0.014 0.271,0.002C0.259,-0.01 0.253,-0.025 0.253,-0.044C0.253,-0.058 0.256,-0.073 0.261,-0.088C0.266,-0.103 0.27,-0.119 0.275,-0.136C0.28,-0.152 0.282,-0.168 0.282,-0.183C0.282,-0.202 0.278,-0.215 0.271,-0.222C0.263,-0.229 0.253,-0.232 0.242,-0.232C0.221,-0.232 0.2,-0.224 0.179,-0.206C0.158,-0.19 0.137,-0.168 0.117,-0.141C0.097,-0.115 0.078,-0.088 0.061,-0.06C0.044,-0.032 0.028,-0.007 0.015,0.015C0.004,0.015 -0.006,0.013 -0.015,0.009C-0.025,0.006 -0.033,0 -0.038,-0.007C-0.038,-0.01 -0.034,-0.021 -0.027,-0.038C-0.02,-0.055 -0.012,-0.077 -0.003,-0.102C0.006,-0.127 0.015,-0.153 0.022,-0.18C0.029,-0.207 0.033,-0.231 0.033,-0.253C0.037,-0.258 0.043,-0.262 0.052,-0.267C0.061,-0.272 0.07,-0.274 0.079,-0.274C0.097,-0.274 0.106,-0.265 0.106,-0.248C0.106,-0.237 0.103,-0.22 0.097,-0.195C0.091,-0.17 0.083,-0.143 0.074,-0.116C0.092,-0.143 0.112,-0.171 0.135,-0.198C0.157,-0.225 0.181,-0.247 0.206,-0.265C0.231,-0.283 0.257,-0.292 0.282,-0.292C0.308,-0.292 0.327,-0.283 0.339,-0.264C0.35,-0.245 0.356,-0.225 0.356,-0.202C0.356,-0.181 0.353,-0.162 0.346,-0.145C0.339,-0.127 0.333,-0.11 0.326,-0.094C0.319,-0.077 0.315,-0.061 0.315,-0.044C0.315,-0.03 0.318,-0.02 0.324,-0.015C0.329,-0.009 0.336,-0.006 0.345,-0.006C0.362,-0.006 0.378,-0.014 0.395,-0.029C0.412,-0.045 0.428,-0.065 0.444,-0.089C0.459,-0.113 0.473,-0.137 0.485,-0.162L0.496,-0.149C0.482,-0.116 0.466,-0.087 0.449,-0.062C0.432,-0.037 0.413,-0.017 0.392,-0.002C0.371,0.013 0.348,0.02 0.323,0.02Z" style="fill:white;fill-rule:nonzero;"/>
                </g>
                <g transform="matrix(50,0,0,50,109.8,0)">
                    <path d="M0.108,0.044C0.067,0.044 0.037,0.033 0.017,0.01C-0.004,-0.012 -0.014,-0.039 -0.014,-0.072C-0.014,-0.102 -0.006,-0.134 0.009,-0.167C0.024,-0.2 0.043,-0.232 0.069,-0.261C0.094,-0.29 0.121,-0.314 0.151,-0.333C0.181,-0.351 0.211,-0.36 0.24,-0.36C0.255,-0.36 0.27,-0.356 0.282,-0.348C0.296,-0.34 0.302,-0.324 0.302,-0.299C0.302,-0.274 0.295,-0.25 0.28,-0.228C0.265,-0.205 0.245,-0.185 0.221,-0.168C0.196,-0.151 0.17,-0.137 0.141,-0.126C0.112,-0.115 0.083,-0.108 0.054,-0.105C0.053,-0.098 0.052,-0.092 0.051,-0.086C0.05,-0.08 0.05,-0.074 0.05,-0.069C0.05,-0.059 0.051,-0.049 0.054,-0.039C0.056,-0.029 0.06,-0.02 0.066,-0.012C0.072,-0.003 0.08,0.003 0.091,0.008C0.101,0.013 0.114,0.015 0.129,0.015C0.158,0.015 0.186,0.007 0.214,-0.01C0.242,-0.026 0.268,-0.047 0.292,-0.074C0.316,-0.101 0.336,-0.13 0.353,-0.162L0.365,-0.153C0.347,-0.113 0.324,-0.078 0.297,-0.049C0.269,-0.02 0.239,0.003 0.206,0.019C0.174,0.036 0.141,0.044 0.108,0.044ZM0.059,-0.124C0.077,-0.13 0.097,-0.139 0.12,-0.151C0.143,-0.162 0.165,-0.176 0.186,-0.192C0.206,-0.208 0.224,-0.226 0.237,-0.245C0.251,-0.264 0.258,-0.285 0.258,-0.306C0.258,-0.313 0.257,-0.319 0.254,-0.323C0.251,-0.327 0.246,-0.329 0.237,-0.329C0.221,-0.329 0.204,-0.323 0.186,-0.311C0.168,-0.298 0.151,-0.282 0.134,-0.262C0.117,-0.242 0.102,-0.22 0.089,-0.196C0.076,-0.172 0.066,-0.148 0.059,-0.124Z" style="fill:white;fill-rule:nonzero;"/>
                </g>
                <g transform="matrix(50,0,0,50,139.45,0)">
                    <path d="M0.209,0.087C0.174,0.087 0.143,0.077 0.115,0.057C0.086,0.038 0.064,0.009 0.047,-0.028C0.03,-0.065 0.022,-0.109 0.022,-0.161C0.022,-0.212 0.03,-0.264 0.046,-0.317C0.062,-0.37 0.084,-0.42 0.112,-0.468C0.139,-0.516 0.171,-0.559 0.206,-0.597C0.241,-0.634 0.279,-0.664 0.318,-0.686C0.357,-0.708 0.395,-0.719 0.433,-0.719C0.458,-0.719 0.479,-0.714 0.494,-0.703C0.509,-0.692 0.52,-0.679 0.527,-0.662C0.534,-0.645 0.537,-0.626 0.537,-0.606C0.537,-0.583 0.533,-0.56 0.525,-0.538C0.517,-0.515 0.506,-0.497 0.493,-0.482C0.48,-0.467 0.465,-0.46 0.449,-0.46C0.444,-0.46 0.438,-0.462 0.433,-0.465C0.427,-0.468 0.422,-0.474 0.418,-0.483C0.427,-0.49 0.438,-0.502 0.451,-0.519C0.463,-0.536 0.473,-0.556 0.483,-0.577C0.492,-0.598 0.496,-0.618 0.496,-0.636C0.496,-0.651 0.492,-0.664 0.483,-0.674C0.473,-0.684 0.458,-0.689 0.436,-0.689C0.407,-0.689 0.378,-0.677 0.346,-0.654C0.316,-0.631 0.285,-0.6 0.257,-0.561C0.228,-0.522 0.201,-0.478 0.178,-0.43C0.155,-0.382 0.136,-0.333 0.123,-0.283C0.109,-0.233 0.102,-0.186 0.102,-0.141C0.102,-0.08 0.115,-0.033 0.14,0.001C0.165,0.036 0.197,0.053 0.236,0.053C0.262,0.053 0.287,0.043 0.31,0.024C0.333,0.005 0.354,-0.019 0.372,-0.05C0.39,-0.08 0.405,-0.113 0.416,-0.148C0.427,-0.183 0.433,-0.217 0.436,-0.25C0.411,-0.255 0.391,-0.259 0.376,-0.261C0.361,-0.262 0.346,-0.263 0.333,-0.263C0.324,-0.263 0.315,-0.263 0.306,-0.263C0.296,-0.262 0.285,-0.262 0.272,-0.262C0.277,-0.281 0.285,-0.295 0.297,-0.303C0.308,-0.31 0.323,-0.314 0.34,-0.314C0.359,-0.314 0.378,-0.311 0.399,-0.305C0.419,-0.298 0.439,-0.291 0.458,-0.284C0.477,-0.277 0.494,-0.271 0.509,-0.267L0.502,-0.235C0.489,-0.202 0.479,-0.172 0.471,-0.148C0.463,-0.123 0.457,-0.101 0.453,-0.082C0.448,-0.063 0.445,-0.046 0.444,-0.031C0.442,-0.016 0.441,-0.003 0.441,0.009C0.441,0.022 0.442,0.035 0.443,0.048C0.444,0.061 0.444,0.074 0.445,0.087C0.434,0.082 0.425,0.077 0.417,0.07C0.408,0.064 0.402,0.056 0.398,0.047C0.393,0.038 0.391,0.027 0.391,0.015C0.391,0.008 0.392,0 0.393,-0.007C0.394,-0.014 0.395,-0.022 0.398,-0.031C0.374,0.002 0.346,0.03 0.315,0.053C0.284,0.076 0.248,0.087 0.209,0.087Z" style="fill:white;fill-rule:nonzero;"/>
                </g>
                <g transform="matrix(50,0,0,50,167.15,0)">
                    <path d="M0.069,0.032C0.04,0.032 0.02,0.023 0.008,0.005C-0.004,-0.012 -0.01,-0.034 -0.01,-0.059C-0.01,-0.08 -0.007,-0.101 0,-0.123C0.007,-0.145 0.016,-0.166 0.027,-0.185C0.038,-0.204 0.05,-0.22 0.064,-0.232C0.077,-0.244 0.091,-0.25 0.105,-0.25C0.108,-0.25 0.112,-0.25 0.116,-0.249C0.119,-0.248 0.123,-0.246 0.126,-0.245C0.12,-0.24 0.113,-0.23 0.105,-0.216C0.096,-0.201 0.088,-0.185 0.081,-0.167C0.074,-0.148 0.068,-0.13 0.063,-0.112C0.058,-0.094 0.055,-0.079 0.055,-0.066C0.055,-0.046 0.058,-0.032 0.065,-0.023C0.072,-0.014 0.08,-0.009 0.091,-0.009C0.105,-0.009 0.122,-0.017 0.141,-0.032C0.16,-0.047 0.179,-0.066 0.198,-0.089C0.179,-0.104 0.165,-0.125 0.155,-0.15C0.144,-0.174 0.139,-0.2 0.139,-0.226C0.139,-0.248 0.143,-0.269 0.151,-0.288C0.158,-0.307 0.169,-0.323 0.184,-0.335C0.199,-0.346 0.216,-0.352 0.237,-0.352C0.264,-0.352 0.283,-0.345 0.292,-0.33C0.301,-0.315 0.306,-0.297 0.306,-0.275C0.306,-0.249 0.3,-0.22 0.287,-0.189C0.274,-0.157 0.258,-0.126 0.239,-0.097C0.251,-0.09 0.264,-0.087 0.277,-0.087C0.288,-0.087 0.3,-0.089 0.313,-0.094C0.326,-0.098 0.34,-0.105 0.353,-0.116C0.366,-0.127 0.376,-0.141 0.384,-0.159L0.396,-0.149C0.383,-0.118 0.364,-0.096 0.34,-0.083C0.315,-0.07 0.292,-0.063 0.27,-0.063C0.261,-0.063 0.253,-0.064 0.245,-0.066C0.237,-0.067 0.229,-0.07 0.222,-0.073C0.199,-0.043 0.174,-0.018 0.148,0.002C0.121,0.022 0.094,0.032 0.069,0.032ZM0.216,-0.115C0.233,-0.14 0.247,-0.166 0.258,-0.193C0.269,-0.22 0.274,-0.245 0.274,-0.269C0.274,-0.288 0.271,-0.303 0.266,-0.312C0.26,-0.321 0.253,-0.325 0.244,-0.325C0.231,-0.325 0.217,-0.315 0.203,-0.296C0.189,-0.277 0.182,-0.252 0.182,-0.223C0.182,-0.204 0.185,-0.184 0.191,-0.165C0.196,-0.145 0.205,-0.128 0.216,-0.115Z" style="fill:white;fill-rule:nonzero;"/>
                </g>
                <g transform="matrix(50,0,0,50,185.4,0)">
                    <path d="M0.504,0.031C0.481,0.031 0.464,0.024 0.453,0.009C0.442,-0.005 0.437,-0.022 0.437,-0.042C0.437,-0.059 0.44,-0.075 0.445,-0.092C0.45,-0.109 0.455,-0.125 0.46,-0.141C0.465,-0.157 0.467,-0.171 0.467,-0.184C0.467,-0.197 0.464,-0.207 0.458,-0.212C0.452,-0.217 0.445,-0.22 0.438,-0.22C0.421,-0.22 0.403,-0.207 0.384,-0.181C0.364,-0.155 0.338,-0.118 0.307,-0.071C0.296,-0.055 0.287,-0.039 0.28,-0.023C0.273,-0.006 0.266,0.009 0.259,0.022C0.254,0.022 0.247,0.021 0.239,0.02C0.231,0.019 0.224,0.016 0.218,0.013C0.211,0.01 0.208,0.007 0.208,0.002C0.208,-0.003 0.211,-0.014 0.218,-0.032C0.224,-0.049 0.231,-0.07 0.239,-0.094C0.248,-0.117 0.255,-0.141 0.262,-0.166C0.268,-0.19 0.271,-0.211 0.271,-0.228C0.271,-0.239 0.269,-0.249 0.266,-0.256C0.262,-0.263 0.255,-0.266 0.246,-0.266C0.231,-0.266 0.214,-0.257 0.193,-0.239C0.172,-0.222 0.151,-0.199 0.129,-0.17C0.107,-0.141 0.086,-0.11 0.067,-0.076C0.047,-0.041 0.031,-0.007 0.019,0.027C0.013,0.027 0.006,0.026 -0.003,0.024C-0.012,0.022 -0.019,0.019 -0.025,0.016C-0.032,0.013 -0.035,0.009 -0.035,0.006C-0.035,0.002 -0.031,-0.01 -0.024,-0.029C-0.017,-0.049 -0.009,-0.073 0,-0.101C0.009,-0.128 0.017,-0.156 0.024,-0.185C0.031,-0.214 0.034,-0.239 0.034,-0.261C0.038,-0.266 0.044,-0.27 0.053,-0.275C0.062,-0.28 0.071,-0.282 0.08,-0.282C0.089,-0.282 0.096,-0.28 0.101,-0.275C0.105,-0.27 0.107,-0.264 0.107,-0.256C0.107,-0.247 0.105,-0.233 0.1,-0.212C0.095,-0.191 0.088,-0.167 0.081,-0.142C0.094,-0.163 0.11,-0.185 0.127,-0.207C0.143,-0.23 0.161,-0.25 0.18,-0.269C0.199,-0.288 0.218,-0.303 0.236,-0.315C0.256,-0.326 0.274,-0.332 0.292,-0.332C0.313,-0.332 0.327,-0.325 0.335,-0.31C0.342,-0.295 0.346,-0.277 0.346,-0.256C0.346,-0.239 0.344,-0.222 0.341,-0.203C0.337,-0.185 0.333,-0.168 0.328,-0.153C0.323,-0.137 0.319,-0.124 0.315,-0.115C0.329,-0.14 0.344,-0.165 0.362,-0.189C0.379,-0.212 0.397,-0.232 0.417,-0.247C0.437,-0.262 0.458,-0.269 0.481,-0.269C0.502,-0.269 0.517,-0.263 0.526,-0.25C0.534,-0.237 0.538,-0.222 0.538,-0.205C0.538,-0.188 0.535,-0.169 0.529,-0.148C0.523,-0.127 0.517,-0.107 0.51,-0.088C0.504,-0.069 0.501,-0.052 0.501,-0.038C0.501,-0.029 0.503,-0.021 0.507,-0.015C0.512,-0.008 0.52,-0.004 0.531,-0.004C0.55,-0.004 0.567,-0.013 0.584,-0.029C0.6,-0.047 0.615,-0.067 0.629,-0.092C0.643,-0.116 0.655,-0.139 0.665,-0.162L0.677,-0.148C0.666,-0.12 0.653,-0.092 0.636,-0.065C0.619,-0.037 0.6,-0.014 0.578,0.004C0.555,0.022 0.531,0.031 0.504,0.031Z" style="fill:white;fill-rule:nonzero;"/>
                </g>
            </g>
            <g transform="matrix(1,0,0,1,329.044,56.986)">
                <g transform="matrix(50,0,0,50,0,0)">
                    <path d="M0.048,0.047C0.027,0.047 0.01,0.04 -0.004,0.026C-0.019,0.013 -0.026,-0.008 -0.026,-0.036C-0.026,-0.06 -0.021,-0.086 -0.01,-0.114C0.001,-0.141 0.015,-0.169 0.034,-0.196C0.053,-0.223 0.074,-0.247 0.098,-0.27C0.121,-0.292 0.146,-0.31 0.172,-0.323C0.199,-0.336 0.225,-0.343 0.251,-0.343C0.277,-0.343 0.299,-0.336 0.316,-0.323C0.333,-0.309 0.342,-0.291 0.342,-0.268C0.342,-0.251 0.338,-0.24 0.329,-0.234C0.32,-0.228 0.308,-0.225 0.293,-0.225C0.294,-0.23 0.296,-0.236 0.297,-0.243C0.298,-0.249 0.298,-0.255 0.298,-0.26C0.298,-0.275 0.294,-0.289 0.287,-0.3C0.28,-0.311 0.267,-0.316 0.249,-0.316C0.23,-0.316 0.211,-0.31 0.192,-0.297C0.173,-0.283 0.154,-0.266 0.136,-0.245C0.118,-0.223 0.102,-0.199 0.088,-0.174C0.074,-0.149 0.063,-0.124 0.055,-0.099C0.047,-0.074 0.043,-0.052 0.043,-0.033C0.043,-0.007 0.052,0.006 0.07,0.006C0.085,0.006 0.102,-0.001 0.12,-0.016C0.138,-0.03 0.157,-0.048 0.175,-0.07C0.195,-0.093 0.213,-0.116 0.23,-0.14C0.247,-0.164 0.263,-0.186 0.276,-0.206C0.279,-0.21 0.28,-0.212 0.281,-0.212C0.285,-0.211 0.29,-0.21 0.297,-0.208C0.303,-0.206 0.308,-0.203 0.313,-0.2C0.318,-0.197 0.32,-0.192 0.32,-0.187C0.32,-0.181 0.317,-0.173 0.311,-0.163C0.305,-0.152 0.298,-0.14 0.291,-0.127C0.284,-0.114 0.277,-0.1 0.271,-0.086C0.265,-0.073 0.262,-0.06 0.262,-0.048C0.262,-0.038 0.265,-0.028 0.27,-0.019C0.275,-0.009 0.284,-0.004 0.296,-0.004C0.314,-0.004 0.338,-0.017 0.367,-0.043C0.396,-0.07 0.426,-0.109 0.456,-0.162L0.466,-0.152C0.452,-0.116 0.434,-0.084 0.412,-0.057C0.39,-0.03 0.367,-0.008 0.342,0.007C0.317,0.022 0.292,0.03 0.268,0.03C0.243,0.03 0.225,0.023 0.214,0.008C0.202,-0.007 0.196,-0.023 0.196,-0.04C0.196,-0.044 0.196,-0.049 0.197,-0.054C0.198,-0.059 0.198,-0.064 0.199,-0.069C0.17,-0.03 0.144,-0.001 0.121,0.018C0.097,0.037 0.073,0.047 0.048,0.047Z" style="fill:white;fill-rule:nonzero;"/>
                </g>
            </g>
        </g>
    </g>
</svg>
