<svg xmlns="http://www.w3.org/2000/svg" xmlns:xlink="http://www.w3.org/1999/xlink" viewBox="0 0 1200 300" fill-rule="evenodd" stroke-linejoin="round" stroke-miterlimit="2" xmlns:v="https://vecta.io/nano"><g transform="matrix(3.74692 0 0 3.74692 -142.191 -4.28146)" fill="#fff"><path d="M294.794 58.586c-1.266 0-2.25-.408-2.95-1.225s-1.05-1.858-1.05-3.125c0-1.067.225-2.258.675-3.575s1.075-2.633 1.875-3.95 1.709-2.525 2.725-3.625 2.109-1.992 3.275-2.675 2.35-1.025 3.55-1.025c.634 0 1.117.1 1.45.3s.567.45.7.75c.067-.033.125-.05.175-.05h.175c.634 0 1.075.25 1.325.75s.375.9.375 1.2c0 .4-.166.925-.5 1.575s-.658 1.375-.975 2.175-.475 1.65-.475 2.55c0 .933.234 1.625.7 2.075s1.217.675 2.25.675c.667 0 1.375-.325 2.125-.975s1.492-1.483 2.225-2.5 1.392-2.125 1.975-3.325 1.025-2.35 1.325-3.45c-.333-.333-.5-.733-.5-1.2 0-.667.134-1.258.4-1.775s.575-.917.925-1.2.609-.425.775-.425c.367 0 .575.158.625.475a5.04 5.04 0 0 1 .075.725c0 .167-.091.492-.275.975s-.275.775-.275.875c0 .467.259.892.775 1.275l1.775 1.3c.667.483 1.259 1.067 1.775 1.75s.775 1.558.775 2.625c0 1-.208 2.017-.625 3.05l-1.25 2.95c-.416.933-.625 1.75-.625 2.45 0 .6.15 1 .45 1.2s.65.3 1.05.3c.8 0 1.625-.25 2.475-.75s1.675-1.133 2.475-1.9a19.48 19.48 0 0 0 2.15-2.425c.634-.85 1.1-1.642 1.4-2.375l.65.5c-.633 1.4-1.5 2.775-2.6 4.125s-2.325 2.458-3.675 3.325-2.741 1.3-4.175 1.3c-1.133 0-2.025-.3-2.675-.9s-.975-1.383-.975-2.35c0-1 .234-2.05.7-3.15l1.375-3.275c.45-1.083.675-2.058.675-2.925 0-1.067-.308-1.858-.925-2.375l-1.875-1.425c-.366 1.133-.858 2.325-1.475 3.575s-1.308 2.417-2.075 3.5-1.591 1.958-2.475 2.625-1.808 1-2.775 1c-.933 0-1.775-.192-2.525-.575s-1.325-.958-1.725-1.725c-1.033 2.433-2.308 4.425-3.825 5.975s-3.158 2.325-4.925 2.325zm1.1-2.15c.767 0 1.584-.342 2.45-1.025s1.717-1.608 2.55-2.775 1.55-2.467 2.15-3.9c-.2-.8-.3-1.75-.3-2.85 0-.767.042-1.433.125-2a8.34 8.34 0 0 1 .35-1.5c.15-.433.309-.783.475-1.05-1.133 0-2.191.308-3.175.925s-1.875 1.417-2.675 2.4-1.483 2.042-2.05 3.175-1.008 2.233-1.325 3.3-.475 1.983-.475 2.75.167 1.383.5 1.85a1.62 1.62 0 0 0 1.4.7z"/><g fill-rule="nonzero"><path d="M65.994 61.336c-1.2 0-2.55-.25-3.95-.75-1.45-.5-2.95-1.1-4.5-1.85l-4.55-2.05c-.85.95-1.7 1.65-2.6 2.15-.9.55-1.9.8-2.95.8s-1.95-.25-2.7-.75-1.35-1.1-1.7-1.8c-.4-.65-.6-1.25-.6-1.8 0-.6.3-1.1.85-1.55s1.45-.65 2.8-.65c.85 0 1.8.1 2.9.3l3.25.75c.8-1.4 1.55-3.05 2.25-4.9l2-5.95 2-6.3c-1.55-.5-2.75-1.25-3.65-2.2-.85-.95-1.3-2-1.3-3.15 0-.6.15-1.2.4-1.8s.6-1.1 1.05-1.55c.45-.4 1-.6 1.65-.6-.25.35-.4.8-.5 1.45s-.15 1.2-.15 1.65c0 1.25.25 2.35.8 3.15.55.85 1.2 1.55 2.05 2l2.1-5.7c.7-1.75 1.5-3.35 2.35-4.75s1.8-2.5 2.85-3.3 2.2-1.2 3.45-1.2a5.48 5.48 0 0 1 2.1.45c.8.3 1.4.8 1.95 1.55s.8 1.75.8 3.1c0 1.15-.25 2.35-.7 3.65-.45 1.35-1.2 2.6-2.15 3.8-.95 1.15-2.2 2.1-3.7 2.9-1.5.7-3.25 1.1-5.3 1.15h-.95l-2.1 6.2-2.4 5.95c-.85 1.9-1.75 3.6-2.7 5.05l4.65 1.4a43.97 43.97 0 0 0 4.55 1.2 17.22 17.22 0 0 0 4.05.5c.7 0 1.35-.05 1.9-.2a10.95 10.95 0 0 0 1.65-.6c-.55 1.55-1.25 2.6-2.1 3.25-.9.65-1.95 1-3.15 1zm-18.75-3.15c.75 0 1.45-.2 2.1-.6s1.2-.95 1.75-1.7c-1.05-.45-2.05-.8-3-1.05-1-.3-1.9-.45-2.7-.45-.65 0-1.05.1-1.3.25s-.35.4-.35.7c0 .55.35 1.2 1 1.85s1.45 1 2.5 1zm14.7-21.55c1.5 0 2.85-.45 4.1-1.3 1.2-.85 2.25-1.9 3.1-3.2.8-1.25 1.5-2.55 1.95-3.9.4-1.35.65-2.5.65-3.5 0-.95-.2-1.65-.55-2s-.8-.5-1.25-.5c-1.05 0-2 .65-2.9 2s-1.75 3.1-2.55 5.25l-2.55 7.15zm15.35 21.65c-1.3 0-2.25-.4-2.9-1.25-.65-.8-.95-1.8-.95-2.95 0-.75.15-1.75.45-2.9.25-1.15.65-2.4 1.1-3.7.45-1.25 1-2.45 1.65-3.6.6-1.15 1.25-2.05 1.95-2.8.7-.7 1.4-1.05 2.05-1.05.3 0 .55.1.8.25.2.2.3.5.3.85 0 .4-.25 1.05-.75 1.95l-1.85 3.1c-.7 1.15-1.3 2.4-1.8 3.7-.55 1.25-.8 2.5-.8 3.65 0 1.2.2 2 .6 2.4s1 .6 1.85.6c1.15 0 2.35-.55 3.65-1.7 1.25-1.15 2.6-3.1 4.05-5.95l.45.5c-.95 2.85-2.35 5.05-4.15 6.6-1.85 1.55-3.75 2.3-5.7 2.3zm6-22.9a2.56 2.56 0 0 1-1.4-.4c-.45-.25-.65-.7-.65-1.25 0-.7.4-1.3 1.2-1.8.85-.55 1.65-.8 2.45-.8.5 0 .9.1 1.2.35s.45.65.45 1.2c0 .65-.35 1.25-1.05 1.8-.65.6-1.4.9-2.2.9z"/><use xlink:href="#B"/><use xlink:href="#B" x="17.25"/><use xlink:href="#C"/><use xlink:href="#D"/><use xlink:href="#D" x="23.3"/><use xlink:href="#C" x="63.25"/><path d="M223.594 61.336c-1.75 0-3.3-.5-4.7-1.5-1.45-.95-2.55-2.4-3.4-4.25s-1.25-4.05-1.25-6.65c0-2.55.4-5.15 1.2-7.8s1.9-5.15 3.3-7.55c1.35-2.4 2.95-4.55 4.7-6.45 1.75-1.85 3.65-3.35 5.6-4.45s3.85-1.65 5.75-1.65c1.25 0 2.3.25 3.05.8s1.3 1.2 1.65 2.05.5 1.8.5 2.8c0 1.15-.2 2.3-.6 3.4-.4 1.15-.95 2.05-1.6 2.8s-1.4 1.1-2.2 1.1c-.25 0-.55-.1-.8-.25-.3-.15-.55-.45-.75-.9.45-.35 1-.95 1.65-1.8.6-.85 1.1-1.85 1.6-2.9.45-1.05.65-2.05.65-2.95 0-.75-.2-1.4-.65-1.9-.5-.5-1.25-.75-2.35-.75-1.45 0-2.9.6-4.5 1.75-1.5 1.15-3.05 2.7-4.45 4.65a39.93 39.93 0 0 0-3.95 6.55c-1.15 2.4-2.1 4.85-2.75 7.35-.7 2.5-1.05 4.85-1.05 7.1 0 3.05.65 5.4 1.9 7.1 1.25 1.75 2.85 2.6 4.8 2.6 1.3 0 2.55-.5 3.7-1.45s2.2-2.15 3.1-3.7a22.88 22.88 0 0 0 2.2-4.9c.55-1.75.85-3.45 1-5.1l-3-.55-2.15-.1h-1.35c-.5.05-1.05.05-1.7.05.25-.95.65-1.65 1.25-2.05.55-.35 1.3-.55 2.15-.55.95 0 1.9.15 2.95.45l2.95 1.05 2.55.85-.35 1.6-1.55 4.35-.9 3.3c-.25.95-.4 1.8-.45 2.55-.1.75-.15 1.4-.15 2 0 .65.05 1.3.1 1.95l.1 1.95c-.55-.25-1-.5-1.4-.85-.45-.3-.75-.7-.95-1.15-.25-.45-.35-1-.35-1.6 0-.35.05-.75.1-1.1s.1-.75.25-1.2c-1.2 1.65-2.6 3.05-4.15 4.2s-3.35 1.7-5.3 1.7zm20.7-2.75c-1.45 0-2.45-.45-3.05-1.35-.6-.85-.9-1.95-.9-3.2a10.4 10.4 0 0 1 .5-3.2c.35-1.1.8-2.15 1.35-3.1s1.15-1.75 1.85-2.35c.65-.6 1.35-.9 2.05-.9.15 0 .35 0 .55.05.15.05.35.15.5.2-.3.25-.65.75-1.05 1.45-.45.75-.85 1.55-1.2 2.45l-.9 2.75c-.25.9-.4 1.65-.4 2.3 0 1 .15 1.7.5 2.15s.75.7 1.3.7c.7 0 1.55-.4 2.5-1.15s1.9-1.7 2.85-2.85c-.95-.75-1.65-1.8-2.15-3.05-.55-1.2-.8-2.5-.8-3.8 0-1.1.2-2.15.6-3.1.35-.95.9-1.75 1.65-2.35.75-.55 1.6-.85 2.65-.85 1.35 0 2.3.35 2.75 1.1s.7 1.65.7 2.75c0 1.3-.3 2.75-.95 4.3a26.82 26.82 0 0 1-2.4 4.6c.6.35 1.25.5 1.9.5.55 0 1.15-.1 1.8-.35.65-.2 1.35-.55 2-1.1s1.15-1.25 1.55-2.15l.6.5c-.65 1.55-1.6 2.65-2.8 3.3-1.25.65-2.4 1-3.5 1-.45 0-.85-.05-1.25-.15-.4-.05-.8-.2-1.15-.35-1.15 1.5-2.4 2.75-3.7 3.75-1.35 1-2.7 1.5-3.95 1.5zm7.35-7.35a21.05 21.05 0 0 0 2.1-3.9c.55-1.35.8-2.6.8-3.8 0-.95-.15-1.7-.4-2.15-.3-.45-.65-.65-1.1-.65-.65 0-1.35.5-2.05 1.45s-1.05 2.2-1.05 3.65a9.74 9.74 0 0 0 .45 2.9c.25 1 .7 1.85 1.25 2.5z"/><path d="M284.294 58.536c-1.15 0-2-.35-2.55-1.1-.55-.7-.8-1.55-.8-2.55 0-.85.15-1.65.4-2.5l.75-2.45c.25-.8.35-1.5.35-2.15s-.15-1.15-.45-1.4-.65-.4-1-.4c-.85 0-1.75.65-2.7 1.95l-3.85 5.5c-.55.8-1 1.6-1.35 2.4l-1.05 2.25c-.25 0-.6-.05-1-.1s-.75-.2-1.05-.35c-.35-.15-.5-.3-.5-.55s.15-.8.5-1.7l1.05-3.1c.45-1.15.8-2.35 1.15-3.6.3-1.2.45-2.25.45-3.1 0-.55-.1-1.05-.25-1.4-.2-.35-.55-.5-1-.5-.75 0-1.6.45-2.65 1.35-1.05.85-2.1 2-3.2 3.45s-2.15 3-3.1 4.7c-1 1.75-1.8 3.45-2.4 5.15-.3 0-.65-.05-1.1-.15s-.8-.25-1.1-.4c-.35-.15-.5-.35-.5-.5 0-.2.2-.8.55-1.75l1.2-3.6 1.2-4.2c.35-1.45.5-2.7.5-3.8.2-.25.5-.45.95-.7a2.72 2.72 0 0 1 1.35-.35c.45 0 .8.1 1.05.35.2.25.3.55.3.95 0 .45-.1 1.15-.35 2.2l-.95 3.5c.65-1.05 1.45-2.15 2.3-3.25.8-1.15 1.7-2.15 2.65-3.1s1.9-1.7 2.8-2.3c1-.55 1.9-.85 2.8-.85 1.05 0 1.75.35 2.15 1.1.35.75.55 1.65.55 2.7 0 .85-.1 1.7-.25 2.65l-.65 2.5-.65 1.9c.7-1.25 1.45-2.5 2.35-3.7.85-1.15 1.75-2.15 2.75-2.9s2.05-1.1 3.2-1.1c1.05 0 1.8.3 2.25.95.4.65.6 1.4.6 2.25s-.15 1.8-.45 2.85l-.95 3c-.3.95-.45 1.8-.45 2.5 0 .45.1.85.3 1.15.25.35.65.55 1.2.55.95 0 1.8-.45 2.65-1.25.8-.9 1.55-1.9 2.25-3.15.7-1.2 1.3-2.35 1.8-3.5l.6.7c-.55 1.4-1.2 2.8-2.05 4.15-.85 1.4-1.8 2.55-2.9 3.45-1.15.9-2.35 1.35-3.7 1.35zm47.15.8c-1.05 0-1.9-.35-2.6-1.05-.75-.65-1.1-1.7-1.1-3.1 0-1.2.25-2.5.8-3.9.55-1.35 1.25-2.75 2.2-4.1s2-2.55 3.2-3.7c1.15-1.1 2.4-2 3.7-2.65 1.35-.65 2.65-1 3.95-1s2.4.35 3.25 1c.85.7 1.3 1.6 1.3 2.75 0 .85-.2 1.4-.65 1.7s-1.05.45-1.8.45l.2-.9c.05-.3.05-.6.05-.85 0-.75-.2-1.45-.55-2s-1-.8-1.9-.8c-.95 0-1.9.3-2.85.95a16.78 16.78 0 0 0-2.8 2.6 24.56 24.56 0 0 0-2.4 3.55c-.7 1.25-1.25 2.5-1.65 3.75s-.6 2.35-.6 3.3c0 1.3.45 1.95 1.35 1.95.75 0 1.6-.35 2.5-1.1.9-.7 1.85-1.6 2.75-2.7 1-1.15 1.9-2.3 2.75-3.5l2.3-3.3c.15-.2.2-.3.25-.3l.8.2c.3.1.55.25.8.4s.35.4.35.65c0 .3-.15.7-.45 1.2l-1 1.8-1 2.05c-.3.65-.45 1.3-.45 1.9 0 .5.15 1 .4 1.45.25.5.7.75 1.3.75.9 0 2.1-.65 3.55-1.95 1.45-1.35 2.95-3.3 4.45-5.95l.5.5c-.7 1.8-1.6 3.4-2.7 4.75s-2.25 2.45-3.5 3.2-2.5 1.15-3.7 1.15c-1.25 0-2.15-.35-2.7-1.1-.6-.75-.9-1.55-.9-2.4 0-.2 0-.45.05-.7s.05-.5.1-.75c-1.45 1.95-2.75 3.4-3.9 4.35-1.2.95-2.4 1.45-3.65 1.45z"/></g></g><defs ><path id="B" d="M90.994 59.536c-1.55 0-2.8-.35-3.7-1.05-.95-.65-1.6-1.5-1.95-2.5-.4-1-.6-2-.6-3s.15-1.75.4-2.3.6-.95 1-1.2c.35-.25.75-.45 1.05-.6.4-.15.6-.25.75-.4 1-1.1 1.9-2.25 2.75-3.45s1.55-2.45 2.2-3.8v-.6c0-1.25.2-2.1.65-2.65.4-.5.85-.75 1.3-.75.25 0 .45.05.6.2a.61.61 0 0 1 .2.45c0 .15-.05.45-.15.8s-.15.85-.15 1.4c0 1.1.2 2.3.65 3.55l1.3 4.05c.45 1.45.65 2.9.65 4.45l-.05 1.3c-.05.4-.15.8-.25 1.15 1.15-.2 2.25-.75 3.3-1.6s2.05-2.2 3-4.05l.45.5c-.65 1.85-1.6 3.25-2.85 4.15-1.25.95-2.65 1.55-4.15 1.8-.55 1.45-1.4 2.5-2.5 3.15-1.15.65-2.45 1-3.9 1zm.1-1.75c.4 0 .95-.15 1.6-.4s1.2-.95 1.55-2.05c-1.4-.25-2.65-.8-3.7-1.65-1.1-.85-1.9-1.65-2.45-2.5-.75.05-1.1.6-1.1 1.75a5.35 5.35 0 0 0 1.1 3.3c.7 1.05 1.7 1.55 3 1.55zm3.4-3.25l.15-1.05c.05-.35.05-.8.05-1.3 0-1.55-.2-3.15-.55-4.7l-1-4.35-2.4 3.65c-.85 1.1-1.7 2.1-2.45 2.85.5 1.05 1.3 2.05 2.35 3 1 .95 2.3 1.55 3.85 1.9z"/><path id="C" d="M125.644 59.186c-2.05 0-3.55-.55-4.55-1.7-1.05-1.1-1.55-2.45-1.55-4.1 0-1.5.4-3.1 1.15-4.75s1.7-3.25 3-4.7c1.25-1.45 2.6-2.65 4.1-3.6 1.5-.9 3-1.35 4.45-1.35.75 0 1.5.2 2.1.6.7.4 1 1.2 1 2.45a6.19 6.19 0 0 1-1.1 3.55c-.75 1.15-1.75 2.15-2.95 3-1.25.85-2.55 1.55-4 2.1s-2.9.9-4.35 1.05l-.15.95c-.05.3-.05.6-.05.85 0 .5.05 1 .2 1.5a3.3 3.3 0 0 0 .6 1.35c.3.45.7.75 1.25 1 .5.25 1.15.35 1.9.35 1.45 0 2.85-.4 4.25-1.25 1.4-.8 2.7-1.85 3.9-3.2s2.2-2.8 3.05-4.4l.6.45c-.9 2-2.05 3.75-3.4 5.2-1.4 1.45-2.9 2.6-4.55 3.4-1.6.85-3.25 1.25-4.9 1.25zm-2.45-8.4c.9-.3 1.9-.75 3.05-1.35 1.15-.55 2.25-1.25 3.3-2.05 1-.8 1.9-1.7 2.55-2.65.7-.95 1.05-2 1.05-3.05 0-.35-.05-.65-.2-.85s-.4-.3-.85-.3c-.8 0-1.65.3-2.55.9-.9.65-1.75 1.45-2.6 2.45s-1.6 2.1-2.25 3.3-1.15 2.4-1.5 3.6z"/><path id="D" d="M153.044 57.986c-1.15 0-2.05-.3-2.6-.9-.6-.6-.9-1.35-.9-2.3 0-.7.15-1.45.4-2.2l.7-2.4c.25-.8.35-1.6.35-2.35 0-.95-.2-1.6-.55-1.95-.4-.35-.9-.5-1.45-.5-1.05 0-2.1.4-3.15 1.3-1.05.8-2.1 1.9-3.1 3.25l-2.8 4.05-2.3 3.75c-.55 0-1.05-.1-1.5-.3-.5-.15-.9-.45-1.15-.8 0-.15.2-.7.55-1.55l1.2-3.2 1.25-3.9c.35-1.35.55-2.55.55-3.65.2-.25.5-.45.95-.7a2.72 2.72 0 0 1 1.35-.35c.9 0 1.35.45 1.35 1.3 0 .55-.15 1.4-.45 2.65l-1.15 3.95c.9-1.35 1.9-2.75 3.05-4.1 1.1-1.35 2.3-2.45 3.55-3.35s2.55-1.35 3.8-1.35c1.3 0 2.25.45 2.85 1.4.55.95.85 1.95.85 3.1 0 1.05-.15 2-.5 2.85l-1 2.55c-.35.85-.55 1.65-.55 2.5 0 .7.15 1.2.45 1.45.25.3.6.45 1.05.45.85 0 1.65-.4 2.5-1.15.85-.8 1.65-1.8 2.45-3l2.05-3.65.55.65c-.7 1.65-1.5 3.1-2.35 4.35s-1.8 2.25-2.85 3a5.78 5.78 0 0 1-3.45 1.1z"/></defs></svg>